<svg id="Layer_1" data-name="Layer 1" xmlns="http://www.w3.org/2000/svg" viewBox="0 0 685 258"><defs><style>.cls-1{fill:#080c15;}</style></defs><path class="cls-1" d="M214.71,155.9V110.54H197.3V102.1h43.83v8.44H223.72V155.9Z"/><path class="cls-1" d="M291,155.9,281,135.51a13.24,13.24,0,0,0,5.76-4.59,19.18,19.18,0,0,0,3.32-11.3,21.46,21.46,0,0,0-1.47-8.09,14.5,14.5,0,0,0-4.52-6,16.23,16.23,0,0,0-7.72-3.1,17.28,17.28,0,0,0-2.28-.25c-.82,0-1.49-.05-2-.05H249.89v53.8h9V137.11h12.79l9.1,18.79Zm-32.09-45.36h12.85q.75,0,1.68.06a7.63,7.63,0,0,1,1.72.28,6.77,6.77,0,0,1,3.53,2,8.34,8.34,0,0,1,1.84,3.23,11.78,11.78,0,0,1,0,7,8.39,8.39,0,0,1-1.84,3.21,6.8,6.8,0,0,1-3.53,2,8.38,8.38,0,0,1-1.72.3c-.62.05-1.18.08-1.68.08H258.89Z"/><path class="cls-1" d="M327.66,102.1H314.48l-17,53.8h9.27l3.67-11.66h21.19l3.72,11.66h9.26ZM313.1,135.84l7.88-25,8,25Z"/><path class="cls-1" d="M373.75,157a26,26,0,0,1-13.82-3.53,23.23,23.23,0,0,1-8.83-9.84A32.94,32.94,0,0,1,348,129a32.89,32.89,0,0,1,3.09-14.64,23.26,23.26,0,0,1,8.83-9.85A26,26,0,0,1,373.75,101q9.31,0,15.51,4.65a24.42,24.42,0,0,1,8.7,12.54l-9.07,2.5a15.94,15.94,0,0,0-5.35-8.24,15.33,15.33,0,0,0-9.79-3,15.78,15.78,0,0,0-9,2.43,14.8,14.8,0,0,0-5.42,6.82A27.52,27.52,0,0,0,357.46,129a27,27,0,0,0,1.81,10.29,14.71,14.71,0,0,0,5.44,6.82,15.89,15.89,0,0,0,9,2.43,15.32,15.32,0,0,0,9.79-3,16,16,0,0,0,5.35-8.22l9.07,2.51a24.43,24.43,0,0,1-8.7,12.53Q383.05,157,373.75,157Z"/><path class="cls-1" d="M407,155.9V102.1h9v25l21.48-25h11.06l-23.13,26.38,24.7,27.42H438.68L416,130.79V155.9Z"/><path class="cls-1" d="M456,155.9V102.1h22.23c.53,0,1.2,0,2,.06a17.45,17.45,0,0,1,2.28.24,16.25,16.25,0,0,1,7.71,3.1,14.47,14.47,0,0,1,4.53,6,21.42,21.42,0,0,1,1.47,8.09,21.17,21.17,0,0,1-1.49,8.05,14.7,14.7,0,0,1-4.54,6,16.16,16.16,0,0,1-7.68,3.1c-.7.1-1.46.18-2.3.23s-1.49.07-2,.07H465V155.9Zm9-27.2h12.85c.49,0,1,0,1.68-.07a10,10,0,0,0,1.72-.3,7,7,0,0,0,3.53-2,8.33,8.33,0,0,0,1.83-3.22,11.91,11.91,0,0,0,.54-3.51,12.49,12.49,0,0,0-.54-3.53,8.32,8.32,0,0,0-1.83-3.23,6.84,6.84,0,0,0-3.53-2,7.72,7.72,0,0,0-1.72-.28c-.62,0-1.19-.06-1.68-.06H465Z"/><path class="cls-1" d="M526.3,102.1H513.11l-17,53.8h9.26l3.67-11.66h21.19L534,155.9h9.26Zm-14.57,33.74,7.89-25,8,25Z"/><path class="cls-1" d="M572.09,157a25.93,25.93,0,0,1-13.82-3.53,23.26,23.26,0,0,1-8.84-9.84A33.07,33.07,0,0,1,546.35,129a33,33,0,0,1,3.08-14.64,23.28,23.28,0,0,1,8.84-9.85A25.93,25.93,0,0,1,572.09,101q9.3,0,15.51,4.65a24.48,24.48,0,0,1,8.7,12.54l-9.08,2.5a15.86,15.86,0,0,0-5.34-8.24,15.37,15.37,0,0,0-9.79-3,15.78,15.78,0,0,0-9,2.43,14.74,14.74,0,0,0-5.42,6.82A27.32,27.32,0,0,0,555.8,129a27,27,0,0,0,1.81,10.29,14.71,14.71,0,0,0,5.44,6.82,15.89,15.89,0,0,0,9,2.43,15.32,15.32,0,0,0,9.79-3,15.93,15.93,0,0,0,5.34-8.22l9.08,2.5a24.48,24.48,0,0,1-8.7,12.54Q581.39,157,572.09,157Z"/><path class="cls-1" d="M105.7,124.14a9.86,9.86,0,0,1-8.55-5l-6.69-11.74a9.84,9.84,0,0,1,.09-9.9l7.08-11.93a9.91,9.91,0,0,1,8.45-4.81l13.86,0h0a9.86,9.86,0,0,1,4.94,1.33,10,10,0,0,1,3.61,3.63l6.69,11.74a9.84,9.84,0,0,1-.09,9.9L128,119.31a9.91,9.91,0,0,1-8.44,4.81l-13.87,0ZM120,86.68h0l-13.87,0a3.89,3.89,0,0,0-1.94.52,4,4,0,0,0-1.44,1.41l-7.08,11.92a3.84,3.84,0,0,0-.55,2,4,4,0,0,0,.51,2l6.7,11.73a3.91,3.91,0,0,0,3.42,2h0l13.86,0a4,4,0,0,0,3.39-1.93L130,104.37a3.84,3.84,0,0,0,.55-2,3.92,3.92,0,0,0-.51-2l-6.7-11.74a4,4,0,0,0-1.44-1.46,4.08,4.08,0,0,0-2-.53Z"/><path class="cls-1" d="M151.79,150.73a10,10,0,0,1-4.94-1.34,9.82,9.82,0,0,1-3.61-3.63L136.55,134a9.84,9.84,0,0,1,.09-9.9l7.08-11.92a9.89,9.89,0,0,1,8.44-4.82l13.87,0h0a9.84,9.84,0,0,1,8.56,5l6.69,11.74a9.83,9.83,0,0,1-.09,9.89l-7.08,11.93a9.85,9.85,0,0,1-8.44,4.81l-13.87,0Zm14.26-37.47h0l-13.87,0a3.89,3.89,0,0,0-1.94.52,4,4,0,0,0-1.44,1.41l-7.08,11.92a4.07,4.07,0,0,0-.55,2,3.87,3.87,0,0,0,.52,2l6.69,11.74a3.93,3.93,0,0,0,3.42,2h0l13.87,0a3.89,3.89,0,0,0,1.94-.52,3.94,3.94,0,0,0,1.44-1.4L176.13,131a4,4,0,0,0,.55-2,3.92,3.92,0,0,0-.51-2l-6.7-11.74A3.85,3.85,0,0,0,168,113.8a4,4,0,0,0-2-.54Z"/><path class="cls-1" d="M105.23,177.22a9.84,9.84,0,0,1-8.55-5L90,160.52a9.88,9.88,0,0,1,.08-9.9l7.09-11.93a9.91,9.91,0,0,1,8.44-4.81l13.87,0h0a9.83,9.83,0,0,1,8.54,5l6.7,11.74a9.84,9.84,0,0,1-.09,9.9l-7.08,11.92a9.89,9.89,0,0,1-8.44,4.82l-13.87,0Zm14.26-37.46h0l-13.87,0a3.89,3.89,0,0,0-1.94.52,4,4,0,0,0-1.44,1.41l-7.08,11.92a3.84,3.84,0,0,0-.55,2,4,4,0,0,0,.51,2l6.7,11.73a3.91,3.91,0,0,0,3.42,2h0l13.86,0a3.9,3.9,0,0,0,2-.52,4,4,0,0,0,1.44-1.41l7.08-11.92a4,4,0,0,0,0-4l-6.69-11.73a3.94,3.94,0,0,0-3.42-2Z"/></svg>